# Blender 5.1.1
# www.blender.org
mtllib tree.mtl
o Plane.003
v -0.707107 0.000000 -0.707107
v 0.707107 0.000000 0.707107
v -0.707107 2.000000 -0.707107
v 0.707107 2.000000 0.707107
v -1.000000 0.000000 -0.000000
v 1.000000 0.000000 -0.000000
v -1.000000 2.000000 0.000000
v 1.000000 2.000000 0.000000
v -1.000000 0.000000 -0.000000
v 1.000000 0.000000 -0.000000
v -1.000000 2.000000 0.000000
v 1.000000 2.000000 0.000000
v -0.707107 0.000000 0.707107
v 0.707107 0.000000 -0.707107
v -0.707107 2.000000 0.707107
v 0.707107 2.000000 -0.707107
v 0.000000 0.000000 1.000000
v -0.000000 0.000000 -1.000000
v 0.000000 2.000000 1.000000
v -0.000000 2.000000 -1.000000
vn -0.7071 -0.0000 0.7071
vn -0.0000 -0.0000 1.0000
vn 0.7071 -0.0000 0.7071
vn 1.0000 -0.0000 -0.0000
vt 1.000000 0.000000
vt 0.000000 1.000000
vt 0.000000 0.000000
vt 1.000000 1.000000
s 0
usemtl Material.001
f 2/1/1 3/2/1 1/3/1
f 6/1/2 7/2/2 5/3/2
f 10/1/2 11/2/2 9/3/2
f 14/1/3 15/2/3 13/3/3
f 18/1/4 19/2/4 17/3/4
f 2/1/1 4/4/1 3/2/1
f 6/1/2 8/4/2 7/2/2
f 10/1/2 12/4/2 11/2/2
f 14/1/3 16/4/3 15/2/3
f 18/1/4 20/4/4 19/2/4
