# Blender 5.1.0
# www.blender.org
mtllib roof.mtl
o Cube
v 0.000000 2.000000 0.000000
v 2.000000 0.000000 -3.500000
v 2.000000 0.000000 3.500000
v -2.000000 0.000000 -3.500000
v -2.000000 0.000000 3.500000
vn -0.0000 0.8682 0.4961
vn -0.7071 0.7071 -0.0000
vn -0.0000 -1.0000 -0.0000
vn 0.7071 0.7071 -0.0000
vn -0.0000 0.8682 -0.4961
vt 0.375000 0.750000
vt 0.625000 1.000000
vt 0.375000 1.000000
vt 0.375000 0.000000
vt 0.625000 0.250000
vt 0.375000 0.250000
vt 0.125000 0.500000
vt 0.375000 0.500000
vt 0.125000 0.750000
vt 0.625000 0.750000
vt 0.625000 0.500000
s 0
usemtl Material
f 3/1/1 1/2/1 5/3/1
f 5/4/2 1/5/2 4/6/2
f 4/7/3 2/8/3 3/1/3 5/9/3
f 2/8/4 1/10/4 3/1/4
f 4/6/5 1/11/5 2/8/5
