# Blender 5.1.0
# www.blender.org
mtllib tire.mtl
o Circle
v -0.000000 1.000002 0.000000
v -0.000000 1.000001 0.000000
v -0.000000 1.000001 0.000001
v -0.000000 1.000001 0.000001
v -0.000000 1.000001 0.000001
v -0.000000 1.000001 0.000001
v -0.000000 1.000000 0.000001
v -0.000000 1.000000 0.000002
v 0.000000 1.000000 0.000002
v 0.000000 1.000000 0.000002
v 0.000000 0.999999 0.000001
v 0.000000 0.999999 0.000001
v 0.000000 0.999999 0.000001
v 0.000000 0.999999 0.000001
v 0.000000 0.999999 0.000001
v 0.000000 0.999999 0.000000
v 0.000000 0.999999 0.000000
v 0.000000 0.999999 -0.000000
v 0.000000 0.999999 -0.000001
v 0.000000 0.999999 -0.000001
v 0.000000 0.999999 -0.000001
v 0.000000 0.999999 -0.000001
v 0.000000 0.999999 -0.000001
v 0.000000 1.000000 -0.000002
v 0.000000 1.000000 -0.000002
v -0.000000 1.000000 -0.000002
v -0.000000 1.000001 -0.000001
v -0.000000 1.000001 -0.000001
v -0.000000 1.000001 -0.000001
v -0.000000 1.000001 -0.000001
v -0.000000 1.000001 -0.000001
v -0.000000 1.000001 -0.000000
v 0.388199 0.999999 0.000000
v 0.388199 0.999999 -0.000000
v 0.388199 0.999999 -0.000001
v 0.388199 0.999999 -0.000001
v 0.388199 0.999999 -0.000001
v 0.388199 0.999999 -0.000001
v 0.388199 0.999999 -0.000001
v 0.388199 1.000000 -0.000002
v 0.388199 1.000000 -0.000002
v 0.388199 1.000000 -0.000002
v 0.388199 1.000001 -0.000001
v 0.388199 1.000001 -0.000001
v 0.388199 1.000001 -0.000001
v 0.388199 1.000001 -0.000001
v 0.388199 1.000001 -0.000001
v 0.388199 1.000001 -0.000000
v 0.388199 1.000002 0.000000
v 0.388199 1.000001 0.000000
v 0.388199 1.000001 0.000001
v 0.388199 1.000001 0.000001
v 0.388199 1.000001 0.000001
v 0.388199 1.000001 0.000001
v 0.388199 1.000001 0.000001
v 0.388199 1.000000 0.000002
v 0.388199 1.000000 0.000002
v 0.388199 1.000000 0.000002
v 0.388199 0.999999 0.000001
v 0.388199 0.999999 0.000001
v 0.388199 0.999999 0.000001
v 0.388199 0.999999 0.000001
v 0.388199 0.999999 0.000001
v 0.388199 0.999999 0.000000
v 0.000000 1.000000 -1.000000
v -0.000000 1.195090 -0.980785
v -0.000000 1.382684 -0.923880
v -0.000000 1.555570 -0.831470
v -0.000000 1.707107 -0.707107
v -0.000000 1.831470 -0.555570
v -0.000000 1.923880 -0.382683
v -0.000000 1.980785 -0.195090
v -0.000000 2.000000 0.000000
v -0.000000 1.980785 0.195090
v -0.000000 1.923880 0.382683
v -0.000000 1.831470 0.555570
v -0.000000 1.707107 0.707107
v -0.000000 1.555570 0.831470
v -0.000000 1.382684 0.923880
v -0.000000 1.195090 0.980785
v 0.000000 1.000000 1.000000
v 0.000000 0.804910 0.980785
v 0.000000 0.617317 0.923880
v 0.000000 0.444430 0.831470
v 0.000000 0.292893 0.707107
v 0.000000 0.168530 0.555570
v 0.000000 0.076120 0.382683
v 0.000000 0.019215 0.195090
v 0.000000 0.000000 0.000000
v 0.000000 0.019215 -0.195090
v 0.000000 0.076120 -0.382683
v 0.000000 0.168530 -0.555570
v 0.000000 0.292893 -0.707107
v 0.000000 0.444430 -0.831470
v 0.000000 0.617317 -0.923880
v 0.000000 0.804910 -0.980785
v 0.388199 1.000000 -1.000000
v 0.388199 1.195090 -0.980785
v 0.388199 1.382684 -0.923880
v 0.388199 1.555570 -0.831470
v 0.388199 1.707107 -0.707107
v 0.388199 1.831470 -0.555570
v 0.388199 1.923880 -0.382683
v 0.388199 1.980785 -0.195090
v 0.388199 2.000000 0.000000
v 0.388199 1.980785 0.195090
v 0.388199 1.923880 0.382683
v 0.388199 1.831470 0.555570
v 0.388199 1.707107 0.707107
v 0.388199 1.555570 0.831470
v 0.388199 1.382684 0.923880
v 0.388199 1.195090 0.980785
v 0.388199 1.000000 1.000000
v 0.388199 0.804910 0.980785
v 0.388199 0.617317 0.923880
v 0.388199 0.444430 0.831470
v 0.388199 0.292893 0.707107
v 0.388199 0.168530 0.555570
v 0.388199 0.076120 0.382683
v 0.388199 0.019215 0.195090
v 0.388199 0.000000 0.000000
v 0.388199 0.019215 -0.195090
v 0.388199 0.076120 -0.382683
v 0.388199 0.168530 -0.555570
v 0.388199 0.292893 -0.707107
v 0.388199 0.444430 -0.831470
v 0.388199 0.617317 -0.923880
v 0.388199 0.804910 -0.980785
vn -0.0000 -0.3059 0.9521
vn -0.0000 -0.0000 -1.0000
vn -0.0000 -0.6247 0.7809
vn -0.0000 0.4472 -0.8944
vn -0.0000 -0.8944 0.4472
vn -0.0000 1.0000 -0.0000
vn -0.0000 -0.9574 -0.2889
vn -0.0000 -0.0000 1.0000
vn -0.0000 0.9439 -0.3304
vn -0.0000 -0.9923 -0.1240
vn -0.0000 -0.4472 0.8944
vn -0.0000 0.9979 -0.0645
vn -0.0000 -1.0000 -0.0000
vn -0.0000 0.9574 0.2889
vn -0.0000 -0.9285 -0.3714
vn -0.0000 -0.9439 0.3304
vn -0.0000 0.9923 0.1240
vn -0.0000 0.1240 -0.9923
vn -0.0000 -0.9979 0.0645
vn -0.0000 -0.7474 -0.6644
vn -0.0000 0.9285 0.3714
vn -0.0000 -0.8603 -0.5098
vn -0.0000 -0.1240 0.9923
vn -0.0000 0.1276 -0.9918
vn -0.0000 0.7474 0.6644
vn -0.0000 0.3059 -0.9521
vn -0.0000 0.8603 0.5098
vn -0.0000 0.6247 -0.7809
vn -0.0000 -0.1276 0.9918
vn -0.0000 0.8944 -0.4472
vn -0.0000 -0.1237 -0.9923
vn -0.0000 0.8603 -0.5098
vn -0.0000 -0.8575 0.5145
vn -0.0000 0.6585 -0.7526
vn -0.0000 0.9926 0.1213
vn -0.0000 -0.9923 0.1240
vn -0.0000 0.8575 -0.5145
vn -0.0000 -0.9563 0.2924
vn -0.0000 0.9975 -0.0712
vn -0.0000 -0.9914 -0.1310
vn -0.0000 0.6000 0.8000
vn -0.0000 0.9923 -0.1240
vn -0.0000 0.9584 -0.2854
vn -0.0000 -0.9975 0.0712
vn -0.0000 0.8000 0.6000
vn -0.0000 -0.6000 -0.8000
vn -0.0000 0.7071 0.7071
vn -0.0000 0.3025 0.9532
vn -0.0000 -0.8000 -0.6000
vn -0.0000 0.1315 0.9913
vn -0.0000 -0.7071 -0.7071
vn -0.0000 -0.8603 0.5098
vn -0.0000 -0.3094 -0.9509
vn -0.0000 -0.6585 0.7526
vn -0.0000 -0.9952 -0.0980
vn -0.0000 0.7730 0.6344
vn -0.0000 -0.9569 -0.2903
vn -0.0000 0.6344 0.7730
vn -0.0000 -0.8819 -0.4714
vn -0.0000 0.4714 0.8819
vn -0.0000 0.0980 -0.9952
vn -0.0000 -0.7730 -0.6344
vn -0.0000 0.2903 0.9569
vn -0.0000 0.2903 -0.9569
vn -0.0000 -0.6344 -0.7730
vn -0.0000 0.0980 0.9952
vn -0.0000 0.4714 -0.8819
vn -0.0000 -0.4714 -0.8819
vn -0.0000 -0.0980 0.9952
vn -0.0000 0.6344 -0.7730
vn -0.0000 -0.2903 -0.9569
vn -0.0000 -0.2903 0.9569
vn -0.0000 0.7730 -0.6344
vn -0.0000 -0.0980 -0.9952
vn -0.0000 -0.4714 0.8819
vn -0.0000 0.8819 -0.4714
vn -0.0000 -0.6344 0.7730
vn -0.0000 0.9569 -0.2903
vn -0.0000 -0.7730 0.6344
vn -0.0000 0.9952 -0.0980
vn -0.0000 -0.8819 0.4714
vn -0.0000 0.9952 0.0980
vn -0.0000 -0.9569 0.2903
vn -0.0000 0.9569 0.2903
vn -0.0000 -0.9952 0.0980
vn -0.0000 0.8819 0.4714
vn -1.0000 -0.0000 -0.0000
vn 1.0000 -0.0000 -0.0000
vn 0.7071 -0.7071 -0.0000
vn 0.9701 -0.2425 -0.0000
vn -0.4472 0.8944 -0.0000
vn 0.7071 0.7071 -0.0000
vn 0.9701 0.2425 -0.0000
vn -0.4472 -0.8944 -0.0000
vt 0.000000 0.000000
s 0
usemtl Material.001
f 25/1/1 58/1/1 26/1/1
f 12/1/2 45/1/2 13/1/2
f 26/1/3 59/1/3 27/1/3
f 13/1/4 46/1/4 14/1/4
f 27/1/5 60/1/5 28/1/5
f 14/1/6 47/1/6 15/1/6
f 1/1/7 34/1/7 2/1/7
f 28/1/8 61/1/8 29/1/8
f 15/1/9 48/1/9 16/1/9
f 2/1/10 35/1/10 3/1/10
f 29/1/11 62/1/11 30/1/11
f 16/1/12 49/1/12 17/1/12
f 3/1/13 36/1/13 4/1/13
f 30/1/13 63/1/13 31/1/13
f 17/1/14 50/1/14 18/1/14
f 4/1/15 37/1/15 5/1/15
f 31/1/16 64/1/16 32/1/16
f 18/1/17 51/1/17 19/1/17
f 5/1/18 38/1/18 6/1/18
f 32/1/19 33/1/19 1/1/19
f 19/1/6 52/1/6 20/1/6
f 6/1/20 39/1/20 7/1/20
f 20/1/21 53/1/21 21/1/21
f 7/1/22 40/1/22 8/1/22
f 21/1/23 54/1/23 22/1/23
f 8/1/24 41/1/24 9/1/24
f 22/1/25 55/1/25 23/1/25
f 9/1/26 42/1/26 10/1/26
f 23/1/27 56/1/27 24/1/27
f 10/1/28 43/1/28 11/1/28
f 24/1/29 57/1/29 25/1/29
f 11/1/30 44/1/30 12/1/30
f 25/1/31 57/1/31 58/1/31
f 12/1/8 44/1/8 45/1/8
f 26/1/32 58/1/32 59/1/32
f 13/1/33 45/1/33 46/1/33
f 27/1/34 59/1/34 60/1/34
f 14/1/13 46/1/13 47/1/13
f 1/1/35 33/1/35 34/1/35
f 28/1/2 60/1/2 61/1/2
f 15/1/36 47/1/36 48/1/36
f 2/1/21 34/1/21 35/1/21
f 29/1/37 61/1/37 62/1/37
f 16/1/38 48/1/38 49/1/38
f 3/1/39 35/1/39 36/1/39
f 30/1/6 62/1/6 63/1/6
f 17/1/40 49/1/40 50/1/40
f 4/1/41 36/1/41 37/1/41
f 31/1/42 63/1/42 64/1/42
f 18/1/15 50/1/15 51/1/15
f 5/1/8 37/1/8 38/1/8
f 32/1/43 64/1/43 33/1/43
f 19/1/44 51/1/44 52/1/44
f 6/1/45 38/1/45 39/1/45
f 20/1/46 52/1/46 53/1/46
f 7/1/47 39/1/47 40/1/47
f 21/1/2 53/1/2 54/1/2
f 8/1/48 40/1/48 41/1/48
f 22/1/49 54/1/49 55/1/49
f 9/1/50 41/1/50 42/1/50
f 23/1/51 55/1/51 56/1/51
f 10/1/52 42/1/52 43/1/52
f 24/1/53 56/1/53 57/1/53
f 11/1/54 43/1/54 44/1/54
f 89/1/55 90/1/55 122/1/55
f 76/1/56 77/1/56 109/1/56
f 90/1/57 91/1/57 123/1/57
f 77/1/58 78/1/58 110/1/58
f 91/1/59 92/1/59 124/1/59
f 78/1/60 79/1/60 111/1/60
f 65/1/61 66/1/61 98/1/61
f 92/1/62 93/1/62 125/1/62
f 79/1/63 80/1/63 112/1/63
f 66/1/64 67/1/64 99/1/64
f 93/1/65 94/1/65 126/1/65
f 80/1/66 81/1/66 113/1/66
f 67/1/67 68/1/67 100/1/67
f 94/1/68 95/1/68 127/1/68
f 81/1/69 82/1/69 114/1/69
f 68/1/70 69/1/70 101/1/70
f 95/1/71 96/1/71 128/1/71
f 82/1/72 83/1/72 115/1/72
f 69/1/73 70/1/73 102/1/73
f 96/1/74 65/1/74 97/1/74
f 83/1/75 84/1/75 116/1/75
f 70/1/76 71/1/76 103/1/76
f 84/1/77 85/1/77 117/1/77
f 71/1/78 72/1/78 104/1/78
f 85/1/79 86/1/79 118/1/79
f 72/1/80 73/1/80 105/1/80
f 86/1/81 87/1/81 119/1/81
f 73/1/82 74/1/82 106/1/82
f 87/1/83 88/1/83 120/1/83
f 74/1/84 75/1/84 107/1/84
f 88/1/85 89/1/85 121/1/85
f 75/1/86 76/1/86 108/1/86
f 89/1/55 122/1/55 121/1/55
f 76/1/56 109/1/56 108/1/56
f 90/1/57 123/1/57 122/1/57
f 77/1/58 110/1/58 109/1/58
f 91/1/59 124/1/59 123/1/59
f 78/1/60 111/1/60 110/1/60
f 65/1/61 98/1/61 97/1/61
f 92/1/62 125/1/62 124/1/62
f 79/1/63 112/1/63 111/1/63
f 66/1/64 99/1/64 98/1/64
f 93/1/65 126/1/65 125/1/65
f 80/1/66 113/1/66 112/1/66
f 67/1/67 100/1/67 99/1/67
f 94/1/68 127/1/68 126/1/68
f 81/1/69 114/1/69 113/1/69
f 68/1/70 101/1/70 100/1/70
f 95/1/71 128/1/71 127/1/71
f 82/1/72 115/1/72 114/1/72
f 69/1/73 102/1/73 101/1/73
f 96/1/74 97/1/74 128/1/74
f 83/1/75 116/1/75 115/1/75
f 70/1/76 103/1/76 102/1/76
f 84/1/77 117/1/77 116/1/77
f 71/1/78 104/1/78 103/1/78
f 85/1/79 118/1/79 117/1/79
f 72/1/80 105/1/80 104/1/80
f 86/1/81 119/1/81 118/1/81
f 73/1/82 106/1/82 105/1/82
f 87/1/83 120/1/83 119/1/83
f 74/1/84 107/1/84 106/1/84
f 88/1/85 121/1/85 120/1/85
f 75/1/86 108/1/86 107/1/86
f 1/1/87 66/1/87 65/1/87
f 2/1/87 67/1/87 66/1/87
f 3/1/87 68/1/87 67/1/87
f 4/1/87 69/1/87 68/1/87
f 5/1/87 70/1/87 69/1/87
f 6/1/87 71/1/87 70/1/87
f 7/1/87 72/1/87 71/1/87
f 8/1/87 73/1/87 72/1/87
f 9/1/87 74/1/87 73/1/87
f 10/1/87 75/1/87 74/1/87
f 11/1/87 76/1/87 75/1/87
f 12/1/87 77/1/87 76/1/87
f 13/1/87 78/1/87 77/1/87
f 14/1/87 79/1/87 78/1/87
f 15/1/87 80/1/87 79/1/87
f 16/1/87 81/1/87 80/1/87
f 17/1/87 82/1/87 81/1/87
f 18/1/87 83/1/87 82/1/87
f 19/1/87 84/1/87 83/1/87
f 20/1/87 85/1/87 84/1/87
f 21/1/87 86/1/87 85/1/87
f 22/1/87 87/1/87 86/1/87
f 23/1/87 88/1/87 87/1/87
f 24/1/87 89/1/87 88/1/87
f 25/1/87 90/1/87 89/1/87
f 26/1/87 91/1/87 90/1/87
f 27/1/87 92/1/87 91/1/87
f 28/1/87 93/1/87 92/1/87
f 29/1/87 94/1/87 93/1/87
f 30/1/87 95/1/87 94/1/87
f 31/1/87 96/1/87 95/1/87
f 32/1/87 65/1/87 96/1/87
f 34/1/88 97/1/88 98/1/88
f 35/1/88 98/1/88 99/1/88
f 36/1/88 99/1/88 100/1/88
f 37/1/88 100/1/88 101/1/88
f 38/1/88 101/1/88 102/1/88
f 39/1/88 102/1/88 103/1/88
f 40/1/88 103/1/88 104/1/88
f 41/1/88 104/1/88 105/1/88
f 42/1/88 105/1/88 106/1/88
f 43/1/88 106/1/88 107/1/88
f 44/1/88 107/1/88 108/1/88
f 45/1/88 108/1/88 109/1/88
f 46/1/88 109/1/88 110/1/88
f 47/1/88 110/1/88 111/1/88
f 48/1/88 111/1/88 112/1/88
f 49/1/88 112/1/88 113/1/88
f 50/1/88 113/1/88 114/1/88
f 51/1/88 114/1/88 115/1/88
f 52/1/88 115/1/88 116/1/88
f 53/1/88 116/1/88 117/1/88
f 54/1/88 117/1/88 118/1/88
f 55/1/88 118/1/88 119/1/88
f 56/1/88 119/1/88 120/1/88
f 57/1/88 120/1/88 121/1/88
f 58/1/88 121/1/88 122/1/88
f 59/1/88 122/1/88 123/1/88
f 60/1/88 123/1/88 124/1/88
f 61/1/88 124/1/88 125/1/88
f 62/1/88 125/1/88 126/1/88
f 63/1/88 126/1/88 127/1/88
f 64/1/88 127/1/88 128/1/88
f 33/1/88 128/1/88 97/1/88
f 1/1/88 2/1/88 66/1/88
f 2/1/87 3/1/87 67/1/87
f 3/1/87 4/1/87 68/1/87
f 4/1/87 5/1/87 69/1/87
f 5/1/88 6/1/88 70/1/88
f 6/1/87 7/1/87 71/1/87
f 7/1/87 8/1/87 72/1/87
f 8/1/88 9/1/88 73/1/88
f 9/1/88 10/1/88 74/1/88
f 10/1/88 11/1/88 75/1/88
f 11/1/88 12/1/88 76/1/88
f 12/1/87 13/1/87 77/1/87
f 13/1/87 14/1/87 78/1/87
f 14/1/88 15/1/88 79/1/88
f 15/1/87 16/1/87 80/1/87
f 16/1/87 17/1/87 81/1/87
f 17/1/88 18/1/88 82/1/88
f 18/1/87 19/1/87 83/1/87
f 19/1/87 20/1/87 84/1/87
f 20/1/87 21/1/87 85/1/87
f 21/1/88 22/1/88 86/1/88
f 22/1/87 23/1/87 87/1/87
f 23/1/87 24/1/87 88/1/87
f 24/1/88 25/1/88 89/1/88
f 25/1/88 26/1/88 90/1/88
f 26/1/88 27/1/88 91/1/88
f 27/1/88 28/1/88 92/1/88
f 28/1/87 29/1/87 93/1/87
f 29/1/87 30/1/87 94/1/87
f 30/1/88 31/1/88 95/1/88
f 31/1/87 32/1/87 96/1/87
f 32/1/87 1/1/87 65/1/87
f 34/1/88 33/1/88 97/1/88
f 35/1/89 34/1/89 98/1/89
f 36/1/87 35/1/87 99/1/87
f 37/1/88 36/1/88 100/1/88
f 38/1/88 37/1/88 101/1/88
f 39/1/87 38/1/87 102/1/87
f 40/1/87 39/1/87 103/1/87
f 41/1/87 40/1/87 104/1/87
f 42/1/87 41/1/87 105/1/87
f 43/1/88 42/1/88 106/1/88
f 44/1/90 43/1/90 107/1/90
f 45/1/87 44/1/87 108/1/87
f 46/1/88 45/1/88 109/1/88
f 47/1/88 46/1/88 110/1/88
f 48/1/88 47/1/88 111/1/88
f 49/1/91 48/1/91 112/1/91
f 50/1/88 49/1/88 113/1/88
f 51/1/92 50/1/92 114/1/92
f 52/1/87 51/1/87 115/1/87
f 53/1/88 52/1/88 116/1/88
f 54/1/88 53/1/88 117/1/88
f 55/1/87 54/1/87 118/1/87
f 56/1/87 55/1/87 119/1/87
f 57/1/87 56/1/87 120/1/87
f 58/1/87 57/1/87 121/1/87
f 59/1/88 58/1/88 122/1/88
f 60/1/93 59/1/93 123/1/93
f 61/1/87 60/1/87 124/1/87
f 62/1/88 61/1/88 125/1/88
f 63/1/88 62/1/88 126/1/88
f 64/1/88 63/1/88 127/1/88
f 33/1/94 64/1/94 128/1/94
