# Blender 5.1.0
# www.blender.org
mtllib uaz-body.mtl
o Cube.001
v -2.000000 0.500000 -2.000000
v -2.000000 4.500000 -2.000000
v -2.000000 0.500000 -10.000000
v -2.000000 4.500000 -10.000000
v 2.000000 0.500000 -2.000000
v 2.000000 4.500000 -2.000000
v 2.000000 0.500000 -10.000000
v 2.000000 4.500000 -10.000000
v -1.000000 0.500000 -1.600000
v 1.000000 0.500000 -1.600000
v -1.000000 1.500000 -1.600000
v 1.000000 1.500000 -1.600000
v -1.000000 0.500000 -1.600000
v 1.000000 0.500000 -1.600000
v -1.000000 1.500000 -1.600000
v 1.000000 1.500000 -1.600000
v -1.000000 0.500000 -1.600000
v 1.000000 0.500000 -1.600000
v -1.000000 1.500000 -1.600000
v 1.000000 1.500000 -1.600000
v -1.000000 0.500000 -1.500000
v 1.000000 0.500000 -1.500000
v -1.000000 1.500000 -1.500000
v 1.000000 1.500000 -1.500000
v 2.000000 2.500000 -2.000000
v 2.000000 0.500000 -2.000000
v 2.000000 2.500000 -1.600000
v 2.000000 0.500000 -1.600000
v -2.000000 2.500000 -2.000000
v -2.000000 0.500000 -2.000000
v -2.000000 2.500000 -1.600000
v -2.000000 0.500000 -1.600000
v 1.500000 2.300000 -1.600000
v 1.441473 2.294235 -1.600000
v 1.385195 2.277164 -1.600000
v 1.333329 2.249441 -1.600000
v 1.287868 2.212132 -1.600000
v 1.250559 2.166671 -1.600000
v 1.222836 2.114805 -1.600000
v 1.205764 2.058527 -1.600000
v 1.200000 2.000000 -1.600000
v 1.205764 1.941473 -1.600000
v 1.222836 1.885195 -1.600000
v 1.250559 1.833329 -1.600000
v 1.287868 1.787868 -1.600000
v 1.333329 1.750559 -1.600000
v 1.385195 1.722836 -1.600000
v 1.441473 1.705764 -1.600000
v 1.500000 1.700000 -1.600000
v 1.558527 1.705764 -1.600000
v 1.614805 1.722836 -1.600000
v 1.666671 1.750559 -1.600000
v 1.712132 1.787868 -1.600000
v 1.749441 1.833329 -1.600000
v 1.777164 1.885195 -1.600000
v 1.794236 1.941473 -1.600000
v 1.800000 2.000000 -1.600000
v 1.794236 2.058527 -1.600000
v 1.777164 2.114805 -1.600000
v 1.749441 2.166671 -1.600000
v 1.712132 2.212132 -1.600000
v 1.666671 2.249441 -1.600000
v 1.614805 2.277164 -1.600000
v 1.558527 2.294235 -1.600000
v 1.500000 2.300000 -1.600000
v 1.441473 2.294235 -1.600000
v 1.385195 2.277164 -1.600000
v 1.333329 2.249441 -1.600000
v 1.287868 2.212132 -1.600000
v 1.250559 2.166671 -1.600000
v 1.222836 2.114805 -1.600000
v 1.205764 2.058527 -1.600000
v 1.200000 2.000000 -1.600000
v 1.205764 1.941473 -1.600000
v 1.222836 1.885195 -1.600000
v 1.250559 1.833329 -1.600000
v 1.287868 1.787868 -1.600000
v 1.333329 1.750559 -1.600000
v 1.385195 1.722836 -1.600000
v 1.441473 1.705764 -1.600000
v 1.500000 1.700000 -1.600000
v 1.558527 1.705764 -1.600000
v 1.614805 1.722836 -1.600000
v 1.666671 1.750559 -1.600000
v 1.712132 1.787868 -1.600000
v 1.749441 1.833329 -1.600000
v 1.777164 1.885195 -1.600000
v 1.794236 1.941473 -1.600000
v 1.800000 2.000000 -1.600000
v 1.794236 2.058527 -1.600000
v 1.777164 2.114805 -1.600000
v 1.749441 2.166671 -1.600000
v 1.712132 2.212132 -1.600000
v 1.666671 2.249441 -1.600000
v 1.614805 2.277164 -1.600000
v 1.558527 2.294235 -1.600000
v 1.500000 2.300000 -1.500000
v 1.441473 2.294235 -1.500000
v 1.385195 2.277164 -1.500000
v 1.333329 2.249441 -1.500000
v 1.287868 2.212132 -1.500000
v 1.250559 2.166671 -1.500000
v 1.222836 2.114805 -1.500000
v 1.205764 2.058527 -1.500000
v 1.200000 2.000000 -1.500000
v 1.205764 1.941473 -1.500000
v 1.222836 1.885195 -1.500000
v 1.250559 1.833329 -1.500000
v 1.287868 1.787868 -1.500000
v 1.333329 1.750559 -1.500000
v 1.385195 1.722836 -1.500000
v 1.441473 1.705764 -1.500000
v 1.500000 1.700000 -1.500000
v 1.558527 1.705764 -1.500000
v 1.614805 1.722836 -1.500000
v 1.666671 1.750559 -1.500000
v 1.712132 1.787868 -1.500000
v 1.749441 1.833329 -1.500000
v 1.777164 1.885195 -1.500000
v 1.794236 1.941473 -1.500000
v 1.800000 2.000000 -1.500000
v 1.794236 2.058527 -1.500000
v 1.777164 2.114805 -1.500000
v 1.749441 2.166671 -1.500000
v 1.712132 2.212132 -1.500000
v 1.666671 2.249441 -1.500000
v 1.614805 2.277164 -1.500000
v 1.558527 2.294235 -1.500000
v -1.500000 2.300000 -1.600000
v -1.558527 2.294235 -1.600000
v -1.614805 2.277164 -1.600000
v -1.666671 2.249441 -1.600000
v -1.712132 2.212132 -1.600000
v -1.749441 2.166671 -1.600000
v -1.777164 2.114805 -1.600000
v -1.794236 2.058527 -1.600000
v -1.800000 2.000000 -1.600000
v -1.794236 1.941473 -1.600000
v -1.777164 1.885195 -1.600000
v -1.749441 1.833329 -1.600000
v -1.712132 1.787868 -1.600000
v -1.666671 1.750559 -1.600000
v -1.614805 1.722836 -1.600000
v -1.558527 1.705764 -1.600000
v -1.500000 1.700000 -1.600000
v -1.441473 1.705764 -1.600000
v -1.385195 1.722836 -1.600000
v -1.333329 1.750559 -1.600000
v -1.287868 1.787868 -1.600000
v -1.250559 1.833329 -1.600000
v -1.222836 1.885195 -1.600000
v -1.205764 1.941473 -1.600000
v -1.200000 2.000000 -1.600000
v -1.205764 2.058527 -1.600000
v -1.222836 2.114805 -1.600000
v -1.250559 2.166671 -1.600000
v -1.287868 2.212132 -1.600000
v -1.333329 2.249441 -1.600000
v -1.385195 2.277164 -1.600000
v -1.441473 2.294235 -1.600000
v -1.500000 2.300000 -1.600000
v -1.558527 2.294235 -1.600000
v -1.614805 2.277164 -1.600000
v -1.666671 2.249441 -1.600000
v -1.712132 2.212132 -1.600000
v -1.749441 2.166671 -1.600000
v -1.777164 2.114805 -1.600000
v -1.794236 2.058527 -1.600000
v -1.800000 2.000000 -1.600000
v -1.794236 1.941473 -1.600000
v -1.777164 1.885195 -1.600000
v -1.749441 1.833329 -1.600000
v -1.712132 1.787868 -1.600000
v -1.666671 1.750559 -1.600000
v -1.614805 1.722836 -1.600000
v -1.558527 1.705764 -1.600000
v -1.500000 1.700000 -1.600000
v -1.441473 1.705764 -1.600000
v -1.385195 1.722836 -1.600000
v -1.333329 1.750559 -1.600000
v -1.287868 1.787868 -1.600000
v -1.250559 1.833329 -1.600000
v -1.222836 1.885195 -1.600000
v -1.205764 1.941473 -1.600000
v -1.200000 2.000000 -1.600000
v -1.205764 2.058527 -1.600000
v -1.222836 2.114805 -1.600000
v -1.250559 2.166671 -1.600000
v -1.287868 2.212132 -1.600000
v -1.333329 2.249441 -1.600000
v -1.385195 2.277164 -1.600000
v -1.441473 2.294235 -1.600000
v -1.500000 2.300000 -1.500000
v -1.558527 2.294235 -1.500000
v -1.614805 2.277164 -1.500000
v -1.666671 2.249441 -1.500000
v -1.712132 2.212132 -1.500000
v -1.749441 2.166671 -1.500000
v -1.777164 2.114805 -1.500000
v -1.794236 2.058527 -1.500000
v -1.800000 2.000000 -1.500000
v -1.794236 1.941473 -1.500000
v -1.777164 1.885195 -1.500000
v -1.749441 1.833329 -1.500000
v -1.712132 1.787868 -1.500000
v -1.666671 1.750559 -1.500000
v -1.614805 1.722836 -1.500000
v -1.558527 1.705764 -1.500000
v -1.500000 1.700000 -1.500000
v -1.441473 1.705764 -1.500000
v -1.385195 1.722836 -1.500000
v -1.333329 1.750559 -1.500000
v -1.287868 1.787868 -1.500000
v -1.250559 1.833329 -1.500000
v -1.222836 1.885195 -1.500000
v -1.205764 1.941473 -1.500000
v -1.200000 2.000000 -1.500000
v -1.205764 2.058527 -1.500000
v -1.222836 2.114805 -1.500000
v -1.250559 2.166671 -1.500000
v -1.287868 2.212132 -1.500000
v -1.333329 2.249441 -1.500000
v -1.385195 2.277164 -1.500000
v -1.441473 2.294235 -1.500000
vn -1.0000 -0.0000 -0.0000
vn -0.0000 -0.0000 -1.0000
vn 1.0000 -0.0000 -0.0000
vn -0.0000 -0.0000 1.0000
vn -0.0000 -1.0000 -0.0000
vn -0.0000 1.0000 -0.0000
vn -0.7730 0.6344 -0.0000
vn 0.9952 -0.0980 -0.0000
vn -0.8819 0.4714 -0.0000
vn 0.9952 0.0980 -0.0000
vn -0.9569 0.2903 -0.0000
vn 0.9569 0.2903 -0.0000
vn -0.9952 0.0980 -0.0000
vn 0.8819 0.4714 -0.0000
vn -0.9952 -0.0980 -0.0000
vn 0.7730 0.6344 -0.0000
vn -0.9569 -0.2903 -0.0000
vn 0.6344 0.7730 -0.0000
vn -0.8819 -0.4714 -0.0000
vn 0.4714 0.8819 -0.0000
vn 0.0980 -0.9952 -0.0000
vn -0.7730 -0.6344 -0.0000
vn 0.2903 0.9569 -0.0000
vn 0.2903 -0.9569 -0.0000
vn -0.6344 -0.7730 -0.0000
vn 0.0980 0.9952 -0.0000
vn 0.4714 -0.8819 -0.0000
vn -0.4714 -0.8819 -0.0000
vn -0.0980 0.9952 -0.0000
vn 0.6344 -0.7730 -0.0000
vn -0.2903 -0.9569 -0.0000
vn -0.2903 0.9569 -0.0000
vn 0.7730 -0.6344 -0.0000
vn -0.0980 -0.9952 -0.0000
vn -0.4714 0.8819 -0.0000
vn 0.8819 -0.4714 -0.0000
vn -0.6344 0.7730 -0.0000
vn 0.9569 -0.2903 -0.0000
vt 0.625000 0.000000
vt 0.375000 0.250000
vt 0.375000 0.000000
vt 0.625000 0.250000
vt 0.375000 0.500000
vt 0.625000 0.500000
vt 0.375000 0.750000
vt 0.625000 0.750000
vt 0.375000 1.000000
vt 0.125000 0.750000
vt 0.125000 0.500000
vt 0.875000 0.500000
vt 0.000000 1.000000
vt 1.000000 0.000000
vt 0.000000 0.000000
vt 1.000000 1.000000
vt 0.625000 1.000000
vt 0.875000 0.750000
s 0
usemtl 
f 2/1/1 3/2/1 1/3/1
f 4/4/2 7/5/2 3/2/2
f 8/6/3 5/7/3 7/5/3
f 6/8/4 1/9/4 5/7/4
f 7/5/5 1/10/5 3/11/5
f 4/12/6 6/8/6 8/6/6
f 11/13/2 10/14/2 9/15/2
f 14/14/6 20/16/6 18/14/6
f 12/16/6 15/13/6 16/16/6
f 9/15/6 14/14/6 13/15/6
f 10/14/6 16/16/6 14/14/6
f 11/13/6 13/15/6 15/13/6
f 20/16/3 22/14/3 18/14/3
f 15/13/6 17/15/6 19/13/6
f 16/16/6 19/13/6 20/16/6
f 13/15/6 18/14/6 17/15/6
f 22/14/4 23/13/4 21/15/4
f 17/15/1 23/13/1 19/13/1
f 19/13/6 24/16/6 20/16/6
f 18/14/5 21/15/5 17/15/5
f 59/15/6 90/15/6 91/15/6
f 46/15/6 77/15/6 78/15/6
f 60/15/6 91/15/6 92/15/6
f 47/15/6 78/15/6 79/15/6
f 34/15/6 65/15/6 66/15/6
f 61/15/6 92/15/6 93/15/6
f 48/15/6 79/15/6 80/15/6
f 35/15/6 66/15/6 67/15/6
f 62/15/6 93/15/6 94/15/6
f 49/15/6 80/15/6 81/15/6
f 36/15/6 67/15/6 68/15/6
f 63/15/6 94/15/6 95/15/6
f 50/15/6 81/15/6 82/15/6
f 37/15/6 68/15/6 69/15/6
f 64/15/6 95/15/6 96/15/6
f 51/15/6 82/15/6 83/15/6
f 38/15/6 69/15/6 70/15/6
f 33/15/6 96/15/6 65/15/6
f 52/15/6 83/15/6 84/15/6
f 39/15/6 70/15/6 71/15/6
f 53/15/6 84/15/6 85/15/6
f 40/15/6 71/15/6 72/15/6
f 54/15/6 85/15/6 86/15/6
f 41/15/6 72/15/6 73/15/6
f 55/15/6 86/15/6 87/15/6
f 42/15/6 73/15/6 74/15/6
f 56/15/6 87/15/6 88/15/6
f 43/15/6 74/15/6 75/15/6
f 57/15/6 88/15/6 89/15/6
f 44/15/6 75/15/6 76/15/6
f 58/15/6 89/15/6 90/15/6
f 45/15/6 76/15/6 77/15/6
f 85/15/7 118/15/7 86/15/7
f 99/15/2 123/15/2 115/15/2
f 72/15/8 105/15/8 73/15/8
f 86/15/9 119/15/9 87/15/9
f 73/15/10 106/15/10 74/15/10
f 87/15/11 120/15/11 88/15/11
f 74/15/12 107/15/12 75/15/12
f 88/15/13 121/15/13 89/15/13
f 75/15/14 108/15/14 76/15/14
f 89/15/15 122/15/15 90/15/15
f 76/15/16 109/15/16 77/15/16
f 90/15/17 123/15/17 91/15/17
f 77/15/18 110/15/18 78/15/18
f 91/15/19 124/15/19 92/15/19
f 78/15/20 111/15/20 79/15/20
f 65/15/21 98/15/21 66/15/21
f 92/15/22 125/15/22 93/15/22
f 79/15/23 112/15/23 80/15/23
f 66/15/24 99/15/24 67/15/24
f 93/15/25 126/15/25 94/15/25
f 80/15/26 113/15/26 81/15/26
f 67/15/27 100/15/27 68/15/27
f 94/15/28 127/15/28 95/15/28
f 81/15/29 114/15/29 82/15/29
f 68/15/30 101/15/30 69/15/30
f 95/15/31 128/15/31 96/15/31
f 82/15/32 115/15/32 83/15/32
f 69/15/33 102/15/33 70/15/33
f 96/15/34 97/15/34 65/15/34
f 83/15/35 116/15/35 84/15/35
f 70/15/36 103/15/36 71/15/36
f 84/15/37 117/15/37 85/15/37
f 71/15/38 104/15/38 72/15/38
f 149/15/6 180/15/6 181/15/6
f 136/15/6 167/15/6 168/15/6
f 150/15/6 181/15/6 182/15/6
f 137/15/6 168/15/6 169/15/6
f 151/15/6 182/15/6 183/15/6
f 138/15/6 169/15/6 170/15/6
f 152/15/6 183/15/6 184/15/6
f 139/15/6 170/15/6 171/15/6
f 153/15/6 184/15/6 185/15/6
f 140/15/6 171/15/6 172/15/6
f 154/15/6 185/15/6 186/15/6
f 141/15/6 172/15/6 173/15/6
f 155/15/6 186/15/6 187/15/6
f 142/15/6 173/15/6 174/15/6
f 156/15/6 187/15/6 188/15/6
f 143/15/6 174/15/6 175/15/6
f 130/15/6 161/15/6 162/15/6
f 157/15/6 188/15/6 189/15/6
f 144/15/6 175/15/6 176/15/6
f 131/15/6 162/15/6 163/15/6
f 158/15/6 189/15/6 190/15/6
f 145/15/6 176/15/6 177/15/6
f 132/15/6 163/15/6 164/15/6
f 159/15/6 190/15/6 191/15/6
f 146/15/6 177/15/6 178/15/6
f 133/15/6 164/15/6 165/15/6
f 160/15/6 191/15/6 192/15/6
f 147/15/6 178/15/6 179/15/6
f 134/15/6 165/15/6 166/15/6
f 129/15/6 192/15/6 161/15/6
f 148/15/6 179/15/6 180/15/6
f 135/15/6 166/15/6 167/15/6
f 175/15/23 208/15/23 176/15/23
f 195/15/2 219/15/2 211/15/2
f 162/15/24 195/15/24 163/15/24
f 189/15/25 222/15/25 190/15/25
f 176/15/26 209/15/26 177/15/26
f 163/15/27 196/15/27 164/15/27
f 190/15/28 223/15/28 191/15/28
f 177/15/29 210/15/29 178/15/29
f 164/15/30 197/15/30 165/15/30
f 191/15/31 224/15/31 192/15/31
f 178/15/32 211/15/32 179/15/32
f 165/15/33 198/15/33 166/15/33
f 192/15/34 193/15/34 161/15/34
f 179/15/35 212/15/35 180/15/35
f 166/15/36 199/15/36 167/15/36
f 180/15/37 213/15/37 181/15/37
f 167/15/38 200/15/38 168/15/38
f 181/15/7 214/15/7 182/15/7
f 168/15/8 201/15/8 169/15/8
f 182/15/9 215/15/9 183/15/9
f 169/15/10 202/15/10 170/15/10
f 183/15/11 216/15/11 184/15/11
f 170/15/12 203/15/12 171/15/12
f 184/15/13 217/15/13 185/15/13
f 171/15/14 204/15/14 172/15/14
f 185/15/15 218/15/15 186/15/15
f 172/15/16 205/15/16 173/15/16
f 186/15/17 219/15/17 187/15/17
f 173/15/18 206/15/18 174/15/18
f 187/15/19 220/15/19 188/15/19
f 174/15/20 207/15/20 175/15/20
f 161/15/21 194/15/21 162/15/21
f 188/15/22 221/15/22 189/15/22
f 2/1/1 4/4/1 3/2/1
f 4/4/2 8/6/2 7/5/2
f 8/6/3 6/8/3 5/7/3
f 6/8/4 2/17/4 1/9/4
f 7/5/5 5/7/5 1/10/5
f 4/12/6 2/18/6 6/8/6
f 11/13/2 12/16/2 10/14/2
f 14/14/6 16/16/6 20/16/6
f 12/16/6 11/13/6 15/13/6
f 9/15/6 10/14/6 14/14/6
f 10/14/6 12/16/6 16/16/6
f 11/13/6 9/15/6 13/15/6
f 20/16/3 24/16/3 22/14/3
f 15/13/6 13/15/6 17/15/6
f 16/16/6 15/13/6 19/13/6
f 13/15/6 14/14/6 18/14/6
f 22/14/4 24/16/4 23/13/4
f 17/15/1 21/15/1 23/13/1
f 19/13/6 23/13/6 24/16/6
f 18/14/5 22/14/5 21/15/5
f 59/15/6 58/15/6 90/15/6
f 46/15/6 45/15/6 77/15/6
f 60/15/6 59/15/6 91/15/6
f 47/15/6 46/15/6 78/15/6
f 34/15/6 33/15/6 65/15/6
f 61/15/6 60/15/6 92/15/6
f 48/15/6 47/15/6 79/15/6
f 35/15/6 34/15/6 66/15/6
f 62/15/6 61/15/6 93/15/6
f 49/15/6 48/15/6 80/15/6
f 36/15/6 35/15/6 67/15/6
f 63/15/6 62/15/6 94/15/6
f 50/15/6 49/15/6 81/15/6
f 37/15/6 36/15/6 68/15/6
f 64/15/6 63/15/6 95/15/6
f 51/15/6 50/15/6 82/15/6
f 38/15/6 37/15/6 69/15/6
f 33/15/6 64/15/6 96/15/6
f 52/15/6 51/15/6 83/15/6
f 39/15/6 38/15/6 70/15/6
f 53/15/6 52/15/6 84/15/6
f 40/15/6 39/15/6 71/15/6
f 54/15/6 53/15/6 85/15/6
f 41/15/6 40/15/6 72/15/6
f 55/15/6 54/15/6 86/15/6
f 42/15/6 41/15/6 73/15/6
f 56/15/6 55/15/6 87/15/6
f 43/15/6 42/15/6 74/15/6
f 57/15/6 56/15/6 88/15/6
f 44/15/6 43/15/6 75/15/6
f 58/15/6 57/15/6 89/15/6
f 45/15/6 44/15/6 76/15/6
f 85/15/7 117/15/7 118/15/7
f 99/15/2 98/15/2 127/15/2
f 98/15/2 97/15/2 127/15/2
f 97/15/2 128/15/2 127/15/2
f 127/15/2 126/15/2 125/15/2
f 125/15/2 124/15/2 123/15/2
f 123/15/2 122/15/2 121/15/2
f 121/15/2 120/15/2 119/15/2
f 119/15/2 118/15/2 117/15/2
f 117/15/2 116/15/2 115/15/2
f 115/15/2 114/15/2 113/15/2
f 113/15/2 112/15/2 111/15/2
f 111/15/2 110/15/2 109/15/2
f 109/15/2 108/15/2 107/15/2
f 107/15/2 106/15/2 105/15/2
f 105/15/2 104/15/2 103/15/2
f 103/15/2 102/15/2 101/15/2
f 101/15/2 100/15/2 99/15/2
f 127/15/2 125/15/2 123/15/2
f 123/15/2 121/15/2 115/15/2
f 121/15/2 119/15/2 115/15/2
f 119/15/2 117/15/2 115/15/2
f 115/15/2 113/15/2 111/15/2
f 111/15/2 109/15/2 107/15/2
f 107/15/2 105/15/2 99/15/2
f 105/15/2 103/15/2 99/15/2
f 103/15/2 101/15/2 99/15/2
f 99/15/2 127/15/2 123/15/2
f 115/15/2 111/15/2 99/15/2
f 111/15/2 107/15/2 99/15/2
f 72/15/8 104/15/8 105/15/8
f 86/15/9 118/15/9 119/15/9
f 73/15/10 105/15/10 106/15/10
f 87/15/11 119/15/11 120/15/11
f 74/15/12 106/15/12 107/15/12
f 88/15/13 120/15/13 121/15/13
f 75/15/14 107/15/14 108/15/14
f 89/15/15 121/15/15 122/15/15
f 76/15/16 108/15/16 109/15/16
f 90/15/17 122/15/17 123/15/17
f 77/15/18 109/15/18 110/15/18
f 91/15/19 123/15/19 124/15/19
f 78/15/20 110/15/20 111/15/20
f 65/15/21 97/15/21 98/15/21
f 92/15/22 124/15/22 125/15/22
f 79/15/23 111/15/23 112/15/23
f 66/15/24 98/15/24 99/15/24
f 93/15/25 125/15/25 126/15/25
f 80/15/26 112/15/26 113/15/26
f 67/15/27 99/15/27 100/15/27
f 94/15/28 126/15/28 127/15/28
f 81/15/29 113/15/29 114/15/29
f 68/15/30 100/15/30 101/15/30
f 95/15/31 127/15/31 128/15/31
f 82/15/32 114/15/32 115/15/32
f 69/15/33 101/15/33 102/15/33
f 96/15/34 128/15/34 97/15/34
f 83/15/35 115/15/35 116/15/35
f 70/15/36 102/15/36 103/15/36
f 84/15/37 116/15/37 117/15/37
f 71/15/38 103/15/38 104/15/38
f 149/15/6 148/15/6 180/15/6
f 136/15/6 135/15/6 167/15/6
f 150/15/6 149/15/6 181/15/6
f 137/15/6 136/15/6 168/15/6
f 151/15/6 150/15/6 182/15/6
f 138/15/6 137/15/6 169/15/6
f 152/15/6 151/15/6 183/15/6
f 139/15/6 138/15/6 170/15/6
f 153/15/6 152/15/6 184/15/6
f 140/15/6 139/15/6 171/15/6
f 154/15/6 153/15/6 185/15/6
f 141/15/6 140/15/6 172/15/6
f 155/15/6 154/15/6 186/15/6
f 142/15/6 141/15/6 173/15/6
f 156/15/6 155/15/6 187/15/6
f 143/15/6 142/15/6 174/15/6
f 130/15/6 129/15/6 161/15/6
f 157/15/6 156/15/6 188/15/6
f 144/15/6 143/15/6 175/15/6
f 131/15/6 130/15/6 162/15/6
f 158/15/6 157/15/6 189/15/6
f 145/15/6 144/15/6 176/15/6
f 132/15/6 131/15/6 163/15/6
f 159/15/6 158/15/6 190/15/6
f 146/15/6 145/15/6 177/15/6
f 133/15/6 132/15/6 164/15/6
f 160/15/6 159/15/6 191/15/6
f 147/15/6 146/15/6 178/15/6
f 134/15/6 133/15/6 165/15/6
f 129/15/6 160/15/6 192/15/6
f 148/15/6 147/15/6 179/15/6
f 135/15/6 134/15/6 166/15/6
f 175/15/23 207/15/23 208/15/23
f 195/15/2 194/15/2 223/15/2
f 194/15/2 193/15/2 223/15/2
f 193/15/2 224/15/2 223/15/2
f 223/15/2 222/15/2 221/15/2
f 221/15/2 220/15/2 219/15/2
f 219/15/2 218/15/2 217/15/2
f 217/15/2 216/15/2 215/15/2
f 215/15/2 214/15/2 213/15/2
f 213/15/2 212/15/2 211/15/2
f 211/15/2 210/15/2 209/15/2
f 209/15/2 208/15/2 207/15/2
f 207/15/2 206/15/2 205/15/2
f 205/15/2 204/15/2 203/15/2
f 203/15/2 202/15/2 201/15/2
f 201/15/2 200/15/2 199/15/2
f 199/15/2 198/15/2 197/15/2
f 197/15/2 196/15/2 195/15/2
f 223/15/2 221/15/2 219/15/2
f 219/15/2 217/15/2 211/15/2
f 217/15/2 215/15/2 211/15/2
f 215/15/2 213/15/2 211/15/2
f 211/15/2 209/15/2 207/15/2
f 207/15/2 205/15/2 203/15/2
f 203/15/2 201/15/2 195/15/2
f 201/15/2 199/15/2 195/15/2
f 199/15/2 197/15/2 195/15/2
f 195/15/2 223/15/2 219/15/2
f 211/15/2 207/15/2 195/15/2
f 207/15/2 203/15/2 195/15/2
f 162/15/24 194/15/24 195/15/24
f 189/15/25 221/15/25 222/15/25
f 176/15/26 208/15/26 209/15/26
f 163/15/27 195/15/27 196/15/27
f 190/15/28 222/15/28 223/15/28
f 177/15/29 209/15/29 210/15/29
f 164/15/30 196/15/30 197/15/30
f 191/15/31 223/15/31 224/15/31
f 178/15/32 210/15/32 211/15/32
f 165/15/33 197/15/33 198/15/33
f 192/15/34 224/15/34 193/15/34
f 179/15/35 211/15/35 212/15/35
f 166/15/36 198/15/36 199/15/36
f 180/15/37 212/15/37 213/15/37
f 167/15/38 199/15/38 200/15/38
f 181/15/7 213/15/7 214/15/7
f 168/15/8 200/15/8 201/15/8
f 182/15/9 214/15/9 215/15/9
f 169/15/10 201/15/10 202/15/10
f 183/15/11 215/15/11 216/15/11
f 170/15/12 202/15/12 203/15/12
f 184/15/13 216/15/13 217/15/13
f 171/15/14 203/15/14 204/15/14
f 185/15/15 217/15/15 218/15/15
f 172/15/16 204/15/16 205/15/16
f 186/15/17 218/15/17 219/15/17
f 173/15/18 205/15/18 206/15/18
f 187/15/19 219/15/19 220/15/19
f 174/15/20 206/15/20 207/15/20
f 161/15/21 193/15/21 194/15/21
f 188/15/22 220/15/22 221/15/22
usemtl Material
f 29/12/6 27/8/6 25/6/6
f 27/8/4 32/9/4 28/7/4
f 31/1/1 30/2/1 32/3/1
f 26/5/5 32/10/5 30/11/5
f 25/6/3 28/7/3 26/5/3
f 29/4/2 26/5/2 30/2/2
f 29/12/6 31/18/6 27/8/6
f 27/8/4 31/17/4 32/9/4
f 31/1/1 29/4/1 30/2/1
f 26/5/5 28/7/5 32/10/5
f 25/6/3 27/8/3 28/7/3
f 29/4/2 25/6/2 26/5/2
